HIERARCHY
ROOT Hips
{
  OFFSET -11.4042 90.9273 -54.5192
  CHANNELS 6 Xposition Yposition Zposition Zrotation Xrotation Yrotation
  JOINT ToSpine
  {
    OFFSET -2.69724 7.43032 -0.144315
    CHANNELS 3 Zrotation Xrotation Yrotation
    JOINT Spine
    {
      OFFSET -0.0310711 10.7595 1.96963
      CHANNELS 3 Zrotation Xrotation Yrotation
      JOINT Spine1
      {
        OFFSET 13.1342 3.43533 0.764692
        CHANNELS 3 Zrotation Xrotation Yrotation
        JOINT Neck
        {
          OFFSET 29.8703 7.82586 -0.130764
          CHANNELS 3 Zrotation Xrotation Yrotation
          JOINT Head
          {
            OFFSET 9.52751 0.295786 -0.907742
            CHANNELS 3 Zrotation Xrotation Yrotation
            End Site
            {
              OFFSET 16.4037 0.713936 2.7358
            }
          }
        }
        JOINT LeftShoulder
        {
          OFFSET 27.5574 4.95586 2.47156
          CHANNELS 3 Zrotation Xrotation Yrotation
          JOINT LeftArm
          {
            OFFSET 1.20734 -0.998971 20.1238
            CHANNELS 3 Zrotation Xrotation Yrotation
            JOINT LeftForeArm
            {
              OFFSET 26.8049 -0.0536703 -0.155908
              CHANNELS 3 Zrotation Xrotation Yrotation
              JOINT LeftHand
              {
                OFFSET 26.6817 0 0.320147
                CHANNELS 3 Zrotation Xrotation Yrotation
                End Site
                {
                  OFFSET 18.6119 0 0.382219
                }
              }
            }
          }
        }
        JOINT RightShoulder
        {
          OFFSET 27.5927 4.71444 -2.65209
          CHANNELS 3 Zrotation Xrotation Yrotation
          JOINT RightArm
          {
            OFFSET 2.83739 -1.17114 -18.7564
            CHANNELS 3 Zrotation Xrotation Yrotation
            JOINT RightForeArm
            {
              OFFSET 28.839 -0.0548439 1.22491
              CHANNELS 3 Zrotation Xrotation Yrotation
              JOINT RightHand
              {
                OFFSET 26.5114 0 -0.101894
                CHANNELS 3 Zrotation Xrotation Yrotation
                End Site
                {
                  OFFSET 18.2168 0 0
                }
              }
            }
          }
        }
      }
    }
  }
  JOINT LeftUpLeg
  {
    OFFSET -4.76168 -1.9167 -10.2353
    CHANNELS 3 Zrotation Xrotation Yrotation
    JOINT LeftLeg
    {
      OFFSET 2.55951 -42.0585 -8.02213
      CHANNELS 3 Zrotation Xrotation Yrotation
      JOINT LeftFoot
      {
        OFFSET 3.16357 -42.5282 -3.95426
        CHANNELS 3 Zrotation Xrotation Yrotation
        JOINT LeftToeBase
        {
          OFFSET 0.346054 -6.02161 12.8035
          CHANNELS 3 Zrotation Xrotation Yrotation
          End Site
          {
            OFFSET 0.134235 -1.35082 5.13018
          }
        }
      }
    }
  }
  JOINT RightUpLeg
  {
    OFFSET -4.94151 -1.41743 10.6446
    CHANNELS 3 Zrotation Xrotation Yrotation
    JOINT RightLeg
    {
      OFFSET -2.56294 -42.0364 -7.94377
      CHANNELS 3 Zrotation Xrotation Yrotation
      JOINT RightFoot
      {
        OFFSET -3.0952 -42.555 -4.02241
        CHANNELS 3 Zrotation Xrotation Yrotation
        JOINT RightToeBase
        {
          OFFSET -0.0828122 -6.13587 12.8035
          CHANNELS 3 Zrotation Xrotation Yrotation
          End Site
          {
            OFFSET -0.131328 -1.35082 5.13018
          }
        }
      }
    }
  }
}
MOTION
Frames:	18
Frame Time:	0.0333333
-11.3982 90.9281 -54.5257 73.8806 9.23997 5.77138 -70.1915 0 88.8779 71.4068 71.481 9.66301 4.91118 21.1467 2.38758 -126.201 42.9586 154.312 119.405 79.9537 -95.6921 0.292568 -15.9894 -22.7747 -55.224 31.6488 -146.213 22.3592 -3.95127 -98.7504 0.420957 0.000575622 0.35866 -2.18151 6.71563 46.7861 -123.282 -8.4827 86.5953 5.71435 -2.10341 70.0732 0.58676 0.00033103 0.0646656 -47.8108 16.7943 95.8346 -4.22154 52.8257 -6.22514 -0.924509 -16.055 -1.38662 7.65941 -16.6676 12.239 -40.1115 -16.5912 78.7498 0.996857 35.3599 -3.46153 11.2351 -4.30874 -0.751978 -3.08016 6.05355 10.7448 
-11.4371 90.9153 -54.4878 73.8789 9.12876 5.77057 -70.1915 0 88.8779 71.1882 71.4874 9.84591 4.81955 21.1428 2.49186 -125.986 42.9917 154.546 118.776 79.5772 -94.7726 0.276746 -16.0553 -22.9109 -55.2609 31.6004 -145.997 22.453 -4.03024 -98.891 0.420957 0.000575622 0.35866 -2.18824 6.81423 46.4191 -123.178 -8.85461 86.4106 5.55769 -2.04296 70.1006 0.58676 0.00033103 0.0646656 -47.756 16.836 95.8317 -4.1856 52.867 -5.89725 -0.970461 -16.1564 -1.39654 7.60467 -16.5696 11.8587 -40.0044 -16.428 78.9533 0.979812 35.4131 -3.56451 11.2126 -4.38837 -0.737863 -3.26007 6.14273 11.4663 
-11.5047 90.9103 -54.4601 74.0252 9.03643 5.7375 -70.1915 0 88.8779 72.1275 71.6379 8.98809 4.47172 21.3588 2.08502 -124.883 42.4003 152.964 120.611 80.0279 -95.8545 0.282356 -16.2202 -22.4088 -54.9669 31.6232 -146.359 22.4563 -3.93161 -98.6605 0.420957 0.000575622 0.35866 -2.18303 6.57936 47.4614 -122.769 -8.03699 86.8584 4.96864 -1.82068 70.1719 0.58676 0.00033103 0.0646656 -47.8759 16.8278 95.7667 -4.19973 52.8945 -5.95226 -0.964667 -16.1605 -1.3968 7.51108 -16.4325 12.1769 -39.9988 -16.3443 79.1007 1.00726 35.5929 -3.40529 11.8777 -5.17159 -0.660768 -3.7251 8.00221 11.7536 
-11.528 90.8882 -54.4503 74.1001 8.97938 5.6774 -70.1915 0 88.8779 71.9756 71.6217 9.1541 4.56073 21.3972 1.90109 -125.302 42.423 153.047 121.641 80.3908 -97.0493 0.319905 -16.0381 -22.143 -54.7797 31.7206 -146.766 22.5742 -3.90133 -98.538 0.420957 0.000575622 0.35866 -2.18736 6.58109 47.5204 -122.61 -8.00588 87.1162 4.76901 -1.76269 70.0194 0.58676 0.00033103 0.0646656 -47.9454 16.8089 95.7872 -4.19957 52.9363 -5.88193 -1.04319 -16.3375 -1.41432 7.36371 -16.202 12.2188 -40.0007 -16.5421 78.6709 1.01837 35.5843 -3.28917 10.9089 -4.69505 -0.655804 -3.76164 5.69364 14.107 
-11.5618 90.8833 -54.4353 74.2551 9.05447 5.7335 -70.1915 0 88.8779 71.9751 71.5941 9.18179 4.70976 21.3805 1.83565 -125.448 42.5838 153.419 120.719 80.1996 -96.4054 0.325484 -15.9903 -22.1496 -54.714 31.691 -146.93 22.5939 -3.83661 -98.3798 0.420957 0.000575622 0.35866 -2.19477 6.58991 47.5835 -122.432 -7.8978 87.2672 4.92132 -1.82316 69.9722 0.58676 0.00033103 0.0646656 -48.0047 16.835 95.6558 -4.16887 52.9837 -5.58283 -0.946756 -16.5279 -1.43001 7.22156 -15.9512 11.6078 -40.19 -16.738 78.1329 0.979306 35.6103 -3.55737 10.6826 -4.92355 -0.59593 -4.5217 6.24328 16.9697 
-11.6148 90.8533 -54.4184 74.4154 9.08201 5.76059 -70.1915 0 88.8779 72.5504 71.6099 8.73583 4.66135 21.4011 1.70199 -125.449 42.5979 153.905 120.362 79.7463 -95.8996 0.298112 -16.1319 -22.3286 -54.8767 31.6091 -146.628 22.3876 -3.87822 -98.5671 0.420957 0.000575622 0.35866 -2.18848 6.6043 47.4225 -122.33 -8.05986 87.2287 4.90294 -1.81309 70.0059 0.58676 0.00033103 0.0646656 -48.0958 16.8688 95.6214 -4.18093 53.0457 -5.56558 -0.409018 -16.3393 -1.40439 7.31822 -16.1145 11.833 -40.2813 -16.8108 77.8683 1.01054 35.7123 -3.44714 10.3826 -4.9109 -0.570758 -4.6663 5.60479 18.3213 
-11.6725 90.8056 -54.3805 74.5168 9.14273 5.81483 -70.1915 0 88.8779 73.3419 71.5328 8.1181 4.45943 21.3802 1.37427 -125.7 41.9941 154.012 125.652 80.339 -101.135 0.323382 -16.0305 -22.0915 -54.7535 31.8011 -146.533 22.5626 -3.96569 -98.6917 0.420957 0.000575622 0.35866 -2.1997 6.57933 47.7059 -122.05 -7.99784 87.3795 4.77239 -1.77051 69.9506 0.58676 0.00033103 0.0646656 -48.084 16.9286 95.5145 -4.18932 53.1592 -5.43923 -0.520622 -16.5697 -1.42634 7.20347 -15.9134 11.4069 -40.2842 -16.8513 77.6536 1.01186 35.8761 -3.57678 9.76459 -4.87526 -0.515736 -4.7003 4.6301 19.7373 
-11.7282 90.7759 -54.3645 74.4656 9.179 5.77912 -70.1915 0 88.8779 71.2611 71.5664 9.81097 5.00729 21.3493 2.00782 -127.021 41.2743 155.57 131.603 79.752 -106.489 0.252784 -16.268 -22.846 -55.1807 31.4967 -146.101 22.1326 -3.90868 -98.7542 0.420957 0.000575622 0.35866 -2.16816 6.67463 46.7936 -122.036 -8.46037 86.9802 4.80421 -1.76617 70.1172 0.58676 0.00033103 0.0646656 -47.9562 16.8784 95.5069 -4.21046 53.2402 -5.45357 -0.456765 -16.6888 -1.43528 7.06862 -15.6965 11.4134 -40.1046 -16.9444 77.6227 0.936495 35.9908 -4.15123 9.26713 -4.80971 -0.476696 -4.98948 3.61671 22.5004 
-11.781 90.75 -54.3549 74.4514 9.25711 5.81599 -70.1915 0 88.8779 70.7105 71.6322 10.5069 5.2187 21.4553 2.01321 -128.16 39.9916 156.678 139.81 79.0596 -113.553 0.221556 -16.3851 -23.1129 -55.3881 31.4801 -146.009 22.3516 -3.93301 -98.7112 0.420957 0.000575622 0.35866 -2.12425 6.57808 46.6241 -122.261 -8.50397 86.8259 5.0019 -1.82761 70.2236 0.58676 0.00033103 0.0646656 -47.8548 16.8761 95.3763 -4.23302 53.3208 -5.48969 -0.673194 -17.1894 -1.48441 6.67007 -15.0334 11.0392 -40.0598 -17.0226 77.4037 0.892833 36.0056 -4.44034 8.38807 -4.59323 -0.418887 -4.97141 2.24403 24.5823 
-11.876 90.7258 -54.3612 74.5409 9.38608 5.79955 -70.1915 0 88.8779 71.9622 71.6669 9.42239 4.97747 21.4112 2.0287 -130.089 39.1411 158.728 144.537 78.0325 -118.264 0.265379 -16.0499 -23.1348 -55.2643 31.6694 -146.184 22.3623 -3.90809 -98.6482 0.420957 0.000575622 0.35866 -2.13094 6.67847 46.2411 -122.53 -8.85611 86.5898 5.19694 -1.89206 70.2836 0.58676 0.00033103 0.0646656 -47.8433 16.9377 95.5137 -4.21103 53.3513 -5.30066 -0.697238 -17.4431 -1.50731 6.56646 -14.815 10.3027 -40.058 -17.2001 77.2341 0.86898 36.1323 -4.67453 8.3462 -4.80603 -0.379101 -5.3593 2.40445 26.286 
-11.942 90.7087 -54.3244 74.5364 9.45955 5.70355 -70.1915 0 88.8779 72.5351 71.7855 8.82132 4.66731 21.4407 2.23155 -131.268 38.63 160.6 146.148 77.0528 -119.83 0.250207 -16.0725 -23.3636 -55.4187 31.7196 -145.995 22.3703 -3.88031 -98.5798 0.420957 0.000575622 0.35866 -2.15723 6.8246 45.9351 -122.451 -8.82394 86.1595 4.92502 -1.78334 70.3893 0.58676 0.00033103 0.0646656 -47.7717 16.8941 95.5548 -4.26837 53.4324 -5.59299 -1.03169 -17.8578 -1.55479 6.25412 -14.3087 10.426 -40.002 -17.4338 76.8872 0.769132 36.0309 -5.38966 6.56829 -4.09674 -0.286884 -5.02504 -0.234451 29.4381 
-12.0011 90.6953 -54.3366 74.6789 9.61634 5.63838 -70.1915 0 88.8779 73.3564 71.9123 8.10331 4.55788 21.5384 2.18582 -131.384 38.3089 161.347 147.195 76.6047 -120.419 0.214417 -16.3034 -23.4382 -55.4844 31.7377 -145.622 22.2142 -3.8878 -98.6677 0.420957 0.000575622 0.35866 -2.16948 6.88815 45.8168 -122.445 -8.82063 85.7048 4.62683 -1.68622 70.2814 0.58676 0.00033103 0.0646656 -47.8948 16.902 95.7151 -4.28135 53.4031 -5.75909 -0.599692 -17.7652 -1.53358 6.26524 -14.3065 10.1608 -40.1988 -17.5908 76.6477 0.727942 35.8954 -5.62391 4.86088 -3.4045 -0.180039 -4.13019 -3.00838 30.7268 
-12.0803 90.6875 -54.3314 74.6877 9.58636 5.54993 -70.1915 0 88.8779 73.9798 71.9943 7.63846 4.47217 21.6264 2.04708 -131.554 38.1569 161.782 148.501 76.5186 -121.336 0.251428 -16.0467 -23.4053 -55.4002 31.6392 -145.757 22.168 -3.89046 -98.695 0.420957 0.000575622 0.35866 -2.17375 6.85864 46.0106 -122.32 -8.70366 85.7807 4.6947 -1.71842 70.199 0.58676 0.00033103 0.0646656 -47.9041 16.9218 95.9524 -4.30842 53.3724 -6.02717 -0.0875221 -17.3062 -1.47995 6.59374 -14.8607 10.3158 -40.0744 -17.6777 76.6359 0.702495 35.9364 -5.82645 4.54331 -3.44376 -0.12747 -4.28907 -3.12895 32.0706 
-12.1982 90.665 -54.3186 74.5722 9.64318 5.35068 -70.1915 0 88.8779 74.129 72.0624 7.43761 4.36862 21.6869 1.99106 -131.846 38.1541 162.32 148.641 76.393 -121.549 0.260828 -16.0092 -23.3242 -55.578 31.6638 -145.774 21.6262 -3.78713 -98.6979 0.420957 0.000575622 0.35866 -2.16253 6.9018 45.6584 -122.621 -9.09529 85.5551 5.41392 -1.9833 70.1642 0.58676 0.00033103 0.0646656 -47.71 16.6449 95.9142 -4.32356 53.4769 -5.97398 -0.61784 -17.744 -1.53273 6.40904 -14.5336 10.0107 -39.8047 -18.0086 76.4296 0.64226 35.9414 -6.27117 2.72219 -3.1087 0.0731427 -3.87562 -4.90299 34.2751 
-12.2916 90.6234 -54.3171 74.4156 9.78625 5.47089 -70.1915 0 88.8779 74.3628 72.05 7.2464 4.19315 21.6027 2.25699 -131.901 38.2171 162.814 147.855 76.1754 -120.756 0.236959 -16.1495 -23.4129 -55.8212 31.6351 -145.534 21.3224 -3.75042 -98.7508 0.420957 0.000575622 0.35866 -2.17463 6.97352 45.5043 -122.604 -9.13495 85.389 5.23562 -1.9161 70.1851 0.58676 0.00033103 0.0646656 -47.3837 16.6512 95.7777 -4.3945 53.6055 -6.26958 -0.667774 -17.5166 -1.51326 6.72478 -15.0799 10.363 -39.6002 -18.1222 76.1787 0.653781 36.0893 -6.23681 2.45265 -3.24096 0.137053 -3.84282 -5.07834 34.6658 
-12.3577 90.5502 -54.3319 74.4364 9.83656 5.40469 -70.1915 0 88.8779 75.226 72.0592 6.45782 3.93705 21.5954 2.1869 -131.202 37.9385 162.467 149.367 76.2242 -121.638 0.227127 -16.2336 -23.3817 -55.9146 31.682 -145.358 21.5162 -3.8268 -98.8457 0.420957 0.000575622 0.35866 -2.20889 6.99794 45.8678 -122.406 -8.89882 85.5244 5.03219 -1.8409 70.1964 0.58676 0.00033103 0.0646656 -47.3426 16.6203 95.8351 -4.46471 53.7316 -6.55347 -0.769795 -17.6788 -1.53083 6.73535 -15.1044 10.496 -39.457 -18.3995 75.8917 0.611521 36.2817 -6.60716 1.39565 -3.12223 0.282281 -3.56172 -6.12891 36.2627 
-12.4125 90.4646 -54.3545 74.4162 9.8005 5.10626 -70.1915 0 88.8779 75.7895 72.1711 5.82661 3.72092 21.7147 2.063 -130.799 37.7379 162.099 150.56 76.2752 -122.161 0.227193 -16.2614 -23.3123 -55.9044 31.5979 -145.448 21.0623 -3.70117 -98.7527 0.420957 0.000575622 0.35866 -2.21679 6.9913 46.005 -122.349 -8.80357 85.4909 4.83444 -1.75462 70.3447 0.58676 0.00033103 0.0646656 -47.3738 16.3666 96.0226 -4.45187 53.7774 -6.35753 -0.443786 -18.1602 -1.56316 6.32821 -14.3991 9.99899 -39.0168 -18.5734 76.4037 0.615325 36.716 -6.71312 0.898513 -3.11276 0.376625 -3.04402 -6.90689 35.9003 
-12.3844 90.4186 -54.3816 74.3152 9.59053 4.78913 -70.1915 0 88.8779 75.5526 72.2479 6.13696 3.638 21.8627 1.87199 -130.466 37.7029 162.11 151.295 76.3504 -122.349 0.224726 -16.2614 -23.3561 -55.9874 31.4363 -145.509 20.6333 -3.52085 -98.5024 0.420957 0.000575622 0.35866 -2.20683 6.96955 45.9671 -122.201 -8.79899 85.6078 5.26731 -1.92241 70.2305 0.58676 0.00033103 0.0646656 -47.5862 16.4 96.6736 -4.54629 53.6777 -7.17139 -0.511241 -18.5777 -1.60268 6.09398 -14.0552 10.5451 -38.508 -18.5557 77.1373 0.730866 37.1793 -5.97371 0.910352 -3.4374 0.440453 -2.8136 -6.37176 33.3814 
